<?xml version="1.0" encoding="utf-8"?>
<!-- Generator: Adobe Illustrator 24.0.2, SVG Export Plug-In . SVG Version: 6.00 Build 0)  -->
<svg version="1.1" id="Capa_1" xmlns="http://www.w3.org/2000/svg" xmlns:xlink="http://www.w3.org/1999/xlink" x="0px" y="0px"
	 viewBox="0 0 1024 768" style="enable-background:new 0 0 1024 768;" xml:space="preserve">
<style type="text/css">
	.st0{fill:#1D1D1B;stroke:#FFFFFF;stroke-miterlimit:10;}
	.st1{fill:#FFFFFF;}
	.st2{fill:#FFFFFF;stroke:#1D1D1B;stroke-miterlimit:10;}
</style>
<path class="st0" d="M393.74,145.27l-6.34,418.51c0,0-0.13,131.98,158.58,134.89c157.15,2.88,157.15-152.64,157.15-152.64V209.39
	l37.34-29.26l-1.12,375.4c0,0,1.12,170.19-188.61,170.19c-269.88,0-181.63-163.76-197.39-631.5"/>
<g>
	<polygon class="st1" points="591.76,180.04 665.79,61.7 739.81,180.02 702.95,208.9 630.58,213.06 	"/>
	<path d="M665.79,62.64l73.36,117.27l-36.39,28.51l-72,4.14l-38.35-32.61L665.79,62.64 M665.79,60.75l-74.68,119.38l39.31,33.43
		l72.72-4.18l37.34-29.26L665.79,60.75L665.79,60.75z"/>
</g>
<path class="st0" d="M628.45,120.44l37.34-59.69l37.34,59.69C703.13,120.44,663.15,149.9,628.45,120.44"/>
<polygon class="st0" points="474.51,43.16 393.74,43.16 353.35,94.22 393.74,145.27 474.51,145.27 514.89,94.22 "/>
<polygon class="st2" points="456.29,57.67 410.28,57.67 387.27,88.62 410.28,119.57 456.29,119.57 479.3,88.62 "/>
<path class="st0" d="M474.51,145.27l-6.1,403.64c0,0,4.66,86.4,77.57,86.4c93.75,0,84.43-93.6,84.43-93.6V213.57l-39.31-33.43
	v378.86c0,0-13.25,26.64-39.17,28.12c-23.45,1.34-37.04-22.36-37.04-22.36V94.22L474.51,145.27z"/>
</svg>
